<svg width="57" height="29" viewBox="0 0 57 29" fill="none" xmlns="http://www.w3.org/2000/svg">
<path d="M6.6 28H0.6V1.2H6.6V11.84H20.6V1.2H26.6V28H20.6V17.24H6.6V28ZM41.6188 28.4C38.0188 28.4 34.9788 27.52 32.6188 25.88L29.5788 28.72L26.6988 25.68L29.6188 22.96C28.0588 20.72 27.2188 17.88 27.2188 14.6C27.2188 6.24 32.7388 0.8 41.6188 0.8C45.2988 0.8 48.3388 1.68 50.7388 3.28L53.6988 0.519999L56.5788 3.56L53.7388 6.2C55.3388 8.44 56.1788 11.28 56.1788 14.6C56.1788 22.96 50.6988 28.4 41.6188 28.4ZM33.5788 14.6C33.5788 16.28 33.7388 17.64 34.1388 18.76L46.3788 7.32C45.1788 6.8 43.5788 6.56 41.6188 6.56C35.7388 6.56 33.5788 8.64 33.5788 14.6ZM41.6188 22.64C47.4988 22.64 49.7788 20.56 49.7788 14.6C49.7788 12.92 49.5788 11.52 49.2188 10.44L36.9388 21.88C38.0988 22.4 39.6588 22.64 41.6188 22.64Z" fill="#1B4B38"/>
</svg>
